<svg xmlns="http://www.w3.org/2000/svg" viewBox="47.27385766601563 75.6416244506836 480.46002197265625 444"> <svg version="1.1" id="Layer_1" xmlns="http://www.w3.org/2000/svg" xmlns:xlink="http://www.w3.org/1999/xlink" x="183.90287017822266" y="145.6416244506836" viewBox="46.80078125 48.8515625 100.3984375 111.44921875" xml:space="preserve" height="230" width="207.1999969482422" preserveAspectRatio="xMinYMin" enable-background="new 0 0 200 200" style="overflow: visible;"><path d="M146.7,80.1c-0.3-1.2-0.8-2.4-1.4-3.4c-0.6-1.1-1.4-2.1-2.3-3c-0.9-0.9-1.9-1.7-3-2.3l-35.8-20.7c-1.1-0.6-2.3-1.1-3.5-1.4   c-2.4-0.6-5-0.6-7.4,0c-1.2,0.3-2.4,0.8-3.5,1.4L54,71.4c-1.1,0.6-2.1,1.4-3,2.3c-0.9,0.9-1.6,1.9-2.3,3c-0.6,1.1-1.1,2.2-1.4,3.4   c-0.3,1.2-0.5,2.5-0.5,3.8l0,41.3c0,1.3,0.2,2.5,0.5,3.8c0.3,1.2,0.8,2.4,1.4,3.4c0.6,1.1,1.4,2.1,2.3,3c0.9,0.9,1.9,1.7,3,2.3   l35.8,20.7c1.1,0.6,2.3,1.1,3.5,1.4c1.2,0.3,2.5,0.5,3.7,0.5s2.5-0.2,3.7-0.5c1.2-0.3,2.4-0.8,3.5-1.4l35.8-20.7   c1.1-0.6,2.1-1.4,3-2.3c0.9-0.9,1.6-1.9,2.3-3c0.6-1.1,1.1-2.2,1.4-3.4c0.3-1.2,0.5-2.5,0.5-3.8V83.9   C147.2,82.6,147,81.3,146.7,80.1z M138.3,134.7l-35.8,20.7c-0.8,0.5-1.7,0.9-2.7,1.1c-0.5,0.1-1.1,0.2-1.6,0.3l0.1-9   c0,0,0.1,0,0.1,0c0.5-0.1,1-0.2,1.5-0.3c0.5-0.1,1-0.3,1.4-0.5c0.5-0.2,0.9-0.4,1.4-0.7l13.8-7.9c0.8-0.5,1.1-1.5,0.6-2.4   c-0.5-0.8-1.5-1.1-2.4-0.6l-13.8,7.9c-0.3,0.2-0.6,0.3-1,0.5c-0.3,0.1-0.7,0.2-1,0.3c-0.3,0.1-0.7,0.2-1,0.2   c-0.7,0.1-1.4,0.1-2.1,0c-0.3,0-0.7-0.1-1-0.2c-0.3-0.1-0.7-0.2-1-0.3c-0.3-0.1-0.7-0.3-1-0.5l-13.8-7.9c-0.8-0.5-1.9-0.2-2.4,0.6   s-0.2,1.9,0.6,2.4l13.8,7.9c0.4,0.3,0.9,0.5,1.4,0.7c0.5,0.2,0.9,0.4,1.4,0.5c0.4,0.1,0.9,0.2,1.3,0.3l-0.1,9   c-0.3-0.1-0.7-0.1-1-0.2c-0.9-0.2-1.8-0.6-2.7-1.1l-35.8-20.7c-0.8-0.5-1.6-1.1-2.3-1.8c-0.7-0.7-1.3-1.4-1.7-2.3   c-0.5-0.8-0.8-1.7-1.1-2.6c-0.3-0.9-0.4-1.9-0.4-2.9l0-41.3c0-1,0.1-1.9,0.4-2.9c0.2-0.9,0.6-1.8,1.1-2.6c0.5-0.8,1.1-1.6,1.7-2.3   c0.7-0.7,1.4-1.3,2.3-1.8l8.3-4.8l4.3,6.4l-4.6,2.7c-0.4,0.3-0.9,0.5-1.3,0.8c-0.4,0.3-0.8,0.6-1.1,1c-0.4,0.4-0.7,0.7-1,1.1   c-0.3,0.4-0.6,0.8-0.8,1.2c-0.2,0.4-0.5,0.9-0.7,1.3c-0.2,0.5-0.4,0.9-0.5,1.4c-0.1,0.5-0.2,1-0.3,1.5c-0.1,0.5-0.1,1-0.1,1.5v19.9   c0,1,0.8,1.7,1.7,1.7s1.7-0.8,1.7-1.7V88.7c0-0.4,0-0.7,0.1-1.1c0-0.3,0.1-0.7,0.2-1c0.1-0.3,0.2-0.7,0.3-1   c0.1-0.3,0.3-0.6,0.5-0.9c0.2-0.3,0.4-0.6,0.6-0.9c0.2-0.3,0.4-0.5,0.7-0.8c0.2-0.2,0.5-0.5,0.8-0.7c0.3-0.2,0.6-0.4,0.9-0.6   l20.6-11.9c0.8-0.5,1.1-1.5,0.6-2.4c-0.5-0.8-1.5-1.1-2.4-0.6L71,74.5l-4.3-6.4l24.9-14.4c0.8-0.5,1.7-0.9,2.7-1.1   c0.9-0.2,1.9-0.4,2.8-0.4c0.9,0,1.9,0.1,2.8,0.4c0.9,0.2,1.8,0.6,2.7,1.1l4.4,2.5l-2.8,6.9c0,0.1-0.1,0.2-0.1,0.3l-1.2-0.7   c-0.9-0.5-1.8-0.9-2.8-1.2c-1.9-0.5-4-0.5-5.9,0c-0.9,0.2-1.5,1.2-1.2,2.1c0.2,0.9,1.2,1.5,2.1,1.2c1.3-0.4,2.8-0.4,4.1,0   c0.7,0.2,1.3,0.5,2,0.8l6.9,4c0.3,0.2,0.6,0.2,0.9,0.2c0.6,0,1.2-0.3,1.5-0.9c0.5-0.8,0.2-1.9-0.6-2.4l-3.3-1.9   c0.2-0.2,0.3-0.3,0.4-0.6l2.7-6.5l28.8,16.6c0.8,0.5,1.6,1.1,2.3,1.8c0.3,0.3,0.5,0.6,0.7,0.8l-7.8,3.5c-0.2,0.1-0.4,0.2-0.5,0.4   c-0.1-0.1-0.2-0.3-0.3-0.4c-0.4-0.4-0.7-0.7-1.1-1c-0.4-0.3-0.8-0.6-1.3-0.8l-6.9-4c-0.8-0.5-1.9-0.2-2.4,0.6   c-0.5,0.8-0.2,1.9,0.6,2.4l6.9,4c0.3,0.2,0.6,0.4,0.9,0.6c0.3,0.2,0.5,0.4,0.8,0.7c0.2,0.2,0.5,0.5,0.7,0.8   c0.2,0.3,0.4,0.6,0.6,0.9c0.2,0.3,0.3,0.6,0.5,0.9c0.1,0.3,0.2,0.7,0.3,1c0.1,0.3,0.2,0.7,0.2,1c0,0.3,0.1,0.7,0.1,1.1v14.2h-6.7   V93c0-0.4,0-0.8-0.1-1.2c-0.1-0.4-0.1-0.8-0.2-1.1c-0.1-0.4-0.2-0.7-0.4-1.1c-0.1-0.4-0.3-0.7-0.5-1c-0.2-0.3-0.4-0.7-0.6-1   c-0.2-0.3-0.5-0.6-0.8-0.9c-0.3-0.3-0.6-0.5-0.9-0.8c-0.3-0.2-0.6-0.5-1-0.7l-20-11.6c-0.3-0.2-0.7-0.4-1.1-0.5   c-0.4-0.1-0.7-0.3-1.1-0.4c-0.4-0.1-0.7-0.2-1.1-0.2c-0.8-0.1-1.5-0.1-2.3,0c-0.4,0-0.8,0.1-1.1,0.2c-0.4,0.1-0.7,0.2-1.1,0.4   c-0.4,0.1-0.7,0.3-1,0.5l-7.5,4.3c-0.8,0.5-1.1,1.5-0.6,2.4c0.5,0.8,1.5,1.1,2.4,0.6l7.5-4.3c0.2-0.1,0.4-0.2,0.6-0.3   c0.2-0.1,0.4-0.2,0.7-0.2c0.2-0.1,0.5-0.1,0.7-0.1c0.5-0.1,0.9-0.1,1.4,0c0.2,0,0.5,0.1,0.7,0.1c0.2,0.1,0.4,0.1,0.7,0.2   c0.2,0.1,0.4,0.2,0.6,0.3l7.7,4.5l-3.5,6.5c-0.1,0.1-0.1,0.3-0.1,0.4L100,86c-0.2-0.1-0.5-0.2-0.7-0.3c-0.2-0.1-0.5-0.2-0.7-0.2   c-0.2-0.1-0.5-0.1-0.7-0.1c-0.5-0.1-1-0.1-1.5,0c-0.3,0-0.5,0.1-0.8,0.1c-0.2,0.1-0.5,0.1-0.7,0.2c-0.2,0.1-0.5,0.2-0.7,0.3   l-11.7,6.7c-0.2,0.1-0.4,0.3-0.6,0.4c-0.2,0.2-0.4,0.3-0.6,0.5c-0.2,0.2-0.3,0.4-0.5,0.6c-0.2,0.2-0.3,0.4-0.4,0.6   c-0.1,0.2-0.2,0.4-0.3,0.7c-0.1,0.2-0.2,0.5-0.2,0.7c-0.1,0.2-0.1,0.5-0.2,0.8c0,0.3-0.1,0.5-0.1,0.8v12.5l-7.8,3.6v-8.1   c0-1-0.8-1.7-1.7-1.7s-1.7,0.8-1.7,1.7v10.3c0,0.4,0,0.8,0.1,1.2c0.1,0.4,0.1,0.8,0.2,1.1c0.1,0.4,0.2,0.7,0.4,1.1   c0.1,0.4,0.3,0.7,0.5,1c0.2,0.3,0.4,0.6,0.6,1c0.2,0.3,0.5,0.6,0.8,0.9c0.3,0.3,0.6,0.5,0.9,0.8c0.3,0.2,0.6,0.5,1,0.7l20,11.6   c0.3,0.2,0.7,0.4,1.1,0.5c0.4,0.1,0.7,0.3,1.1,0.4c0.4,0.1,0.7,0.2,1.1,0.2c0.4,0,0.8,0.1,1.1,0.1s0.8,0,1.1-0.1   c0.4,0,0.8-0.1,1.1-0.2c0.4-0.1,0.7-0.2,1.1-0.4c0.4-0.1,0.7-0.3,1.1-0.5l20-11.6c0.3-0.2,0.7-0.4,1-0.7c0.3-0.2,0.6-0.5,0.9-0.8   c0.3-0.3,0.5-0.6,0.8-0.9c0.2-0.3,0.4-0.6,0.6-0.9c0.2-0.3,0.4-0.7,0.5-1c0.1-0.4,0.3-0.7,0.4-1.1c0.1-0.4,0.2-0.8,0.2-1.1   c0.1-0.4,0.1-0.8,0.1-1.2v-2.9c0-1-0.8-1.7-1.7-1.7s-1.7,0.8-1.7,1.7v2.9c0,0.2,0,0.5,0,0.7c0,0.2-0.1,0.5-0.1,0.7   c-0.1,0.2-0.1,0.4-0.2,0.7c-0.1,0.2-0.2,0.4-0.3,0.6c-0.1,0.2-0.2,0.4-0.4,0.6c-0.1,0.2-0.3,0.4-0.5,0.5c-0.2,0.2-0.3,0.3-0.5,0.5   c-0.2,0.1-0.4,0.3-0.6,0.4l-8.1,4.7l-4.1-6.7l4.1-2.4c0.2-0.1,0.4-0.3,0.7-0.4c0.2-0.2,0.4-0.3,0.6-0.5c0.2-0.2,0.3-0.4,0.5-0.6   c0.2-0.2,0.3-0.4,0.4-0.6c0.1-0.2,0.2-0.4,0.3-0.7c0.1-0.2,0.2-0.5,0.2-0.7c0.1-0.2,0.1-0.5,0.2-0.8c0-0.3,0.1-0.5,0.1-0.8v-3.4   c0-1-0.8-1.7-1.7-1.7s-1.7,0.8-1.7,1.7v3.4c0,0.1,0,0.2,0,0.3c0,0.1,0,0.2-0.1,0.3c0,0.1-0.1,0.2-0.1,0.3c0,0.1-0.1,0.2-0.1,0.3   c-0.1,0.1-0.1,0.2-0.2,0.3c-0.1,0.1-0.1,0.2-0.2,0.2c-0.1,0.1-0.2,0.1-0.2,0.2c-0.1,0.1-0.2,0.1-0.3,0.2l-11.7,6.7   c-0.1,0.1-0.2,0.1-0.3,0.1c-0.1,0-0.2,0.1-0.3,0.1c-0.1,0-0.2,0-0.3,0.1c-0.2,0-0.4,0-0.6,0c-0.1,0-0.2,0-0.3-0.1   c-0.1,0-0.2-0.1-0.3-0.1c-0.1,0-0.2-0.1-0.3-0.1l-11.7-6.7c-0.1-0.1-0.2-0.1-0.3-0.2c-0.1-0.1-0.2-0.1-0.2-0.2   c-0.1-0.1-0.1-0.2-0.2-0.2c-0.1-0.1-0.1-0.2-0.2-0.3c-0.1-0.1-0.1-0.2-0.1-0.3c0-0.1-0.1-0.2-0.1-0.3c0-0.1,0-0.2-0.1-0.3   c0-0.1,0-0.2,0-0.3v-5.2h6.9c1,0,1.7-0.8,1.7-1.7s-0.8-1.7-1.7-1.7h-6.9v-4.8c0-0.1,0-0.2,0-0.3c0-0.1,0-0.2,0.1-0.3   c0-0.1,0.1-0.2,0.1-0.3c0-0.1,0.1-0.2,0.1-0.3c0.1-0.1,0.1-0.2,0.2-0.3c0.1-0.1,0.1-0.2,0.2-0.2c0.1-0.1,0.2-0.1,0.2-0.2   c0.1-0.1,0.2-0.1,0.3-0.2L95.8,89c0.1-0.1,0.2-0.1,0.3-0.1c0.1,0,0.2-0.1,0.3-0.1c0.1,0,0.2,0,0.3-0.1c0.2,0,0.4,0,0.6,0   c0.1,0,0.2,0,0.3,0.1c0.1,0,0.2,0.1,0.3,0.1c0.1,0,0.2,0.1,0.3,0.1l11.7,6.7c0.1,0.1,0.2,0.1,0.3,0.2c0.1,0.1,0.2,0.1,0.2,0.2   c0.1,0.1,0.1,0.2,0.2,0.2c0.1,0.1,0.1,0.2,0.2,0.3c0.1,0.1,0.1,0.2,0.1,0.3c0,0.1,0.1,0.2,0.1,0.3c0,0.1,0,0.2,0.1,0.3   c0,0.1,0,0.2,0,0.3v1.7c0,1,0.8,1.7,1.7,1.7s1.7-0.8,1.7-1.7v-1.7c0-0.3,0-0.5-0.1-0.8c0-0.3-0.1-0.5-0.2-0.8   c-0.1-0.2-0.1-0.5-0.2-0.7c-0.1-0.2-0.2-0.5-0.3-0.7c-0.1-0.2-0.3-0.4-0.4-0.6c-0.2-0.2-0.3-0.4-0.5-0.6c-0.2-0.2-0.4-0.4-0.6-0.5   c-0.2-0.2-0.4-0.3-0.6-0.4l-5.4-3.1c0.1-0.1,0.2-0.2,0.3-0.4l3.5-6.4l9.7,5.6c0.2,0.1,0.4,0.3,0.6,0.4c0.2,0.1,0.4,0.3,0.5,0.5   c0.2,0.2,0.3,0.3,0.5,0.5s0.3,0.4,0.4,0.6c0.1,0.2,0.2,0.4,0.3,0.6c0.1,0.2,0.2,0.4,0.2,0.7c0.1,0.2,0.1,0.5,0.1,0.7   c0,0.2,0,0.5,0,0.7v11.6c0,1,0.8,1.7,1.7,1.7h8.4v14.2c0,0.4,0,0.7-0.1,1.1c0,0.3-0.1,0.7-0.2,1c-0.1,0.3-0.2,0.7-0.3,1   c-0.1,0.3-0.3,0.6-0.5,0.9c-0.2,0.3-0.4,0.6-0.6,0.9c-0.2,0.3-0.4,0.5-0.7,0.8c-0.2,0.2-0.5,0.5-0.8,0.7c-0.3,0.2-0.6,0.4-0.9,0.6   l-6.9,4c-0.8,0.5-1.1,1.5-0.6,2.4c0.3,0.6,0.9,0.9,1.5,0.9c0.3,0,0.6-0.1,0.9-0.2l6.9-4c0.4-0.3,0.9-0.5,1.3-0.8   c0.4-0.3,0.8-0.6,1.1-1c0.4-0.4,0.7-0.7,1-1.1c0.2-0.3,0.4-0.6,0.6-1l6.8,4.8c0.2,0.1,0.4,0.2,0.6,0.2c-0.4,0.5-0.7,1-1.2,1.4   C139.9,133.6,139.1,134.2,138.3,134.7z M104.9,120.3l4.1,6.7l-9.3,5.4c-0.2,0.1-0.4,0.2-0.6,0.3c-0.2,0.1-0.4,0.2-0.7,0.2   c-0.2,0.1-0.5,0.1-0.7,0.1c-0.5,0.1-0.9,0.1-1.4,0c-0.2,0-0.5-0.1-0.7-0.1c-0.2-0.1-0.4-0.1-0.7-0.2c-0.2-0.1-0.4-0.2-0.6-0.3   l-20-11.6c-0.2-0.1-0.4-0.3-0.6-0.4c-0.2-0.1-0.4-0.3-0.5-0.5c-0.2-0.2-0.3-0.3-0.5-0.5c-0.1-0.2-0.3-0.4-0.4-0.6   c-0.1-0.2-0.2-0.4-0.3-0.6c-0.1-0.2-0.2-0.4-0.2-0.7c0-0.1-0.1-0.3-0.1-0.4c0,0,0.1,0,0.1,0l8-3.7c0,0.1,0,0.1,0.1,0.2   c0.1,0.2,0.2,0.5,0.3,0.7c0.1,0.2,0.3,0.4,0.4,0.6c0.2,0.2,0.3,0.4,0.5,0.6c0.2,0.2,0.4,0.4,0.6,0.5c0.2,0.2,0.4,0.3,0.6,0.4   l11.7,6.7c0.2,0.1,0.5,0.2,0.7,0.3c0.2,0.1,0.5,0.2,0.7,0.2c0.2,0.1,0.5,0.1,0.7,0.1c0.3,0,0.5,0,0.8,0s0.5,0,0.8,0   c0.3,0,0.5-0.1,0.8-0.1c0.2-0.1,0.5-0.1,0.7-0.2c0.2-0.1,0.5-0.2,0.7-0.3L104.9,120.3z M143.8,125.2c0,1-0.1,1.9-0.4,2.9   c-0.1,0.3-0.2,0.6-0.3,1c-0.1-0.1-0.1-0.1-0.2-0.2l-7.2-5.1c0,0-0.1-0.1-0.1-0.1c0-0.1,0.1-0.2,0.1-0.2c0.1-0.5,0.2-1,0.3-1.5   c0.1-0.5,0.1-1,0.1-1.5V88.7c0-0.5,0-1-0.1-1.5c-0.1-0.5-0.2-1-0.3-1.5c-0.1-0.5-0.3-1-0.5-1.4c-0.1-0.3-0.3-0.6-0.5-1   c0,0,0.1,0,0.1,0l8-3.6c0,0,0.1,0,0.1-0.1c0.2,0.5,0.4,1,0.5,1.5c0.3,0.9,0.4,1.9,0.4,2.9V125.2z" style="fill: #0aff82; fill-opacity: 1;"></path><path d="M68.9,129.4l-3.4-2c-0.3-0.2-0.6-0.4-0.9-0.6c-0.3-0.2-0.5-0.4-0.8-0.7c-0.2-0.2-0.5-0.5-0.7-0.8c-0.2-0.3-0.4-0.6-0.6-0.9   c-0.2-0.3-0.3-0.6-0.5-0.9c-0.1-0.3-0.2-0.7-0.3-1c-0.1-0.3-0.2-0.7-0.2-1c0-0.4-0.1-0.7-0.1-1.1v-4c0-1-0.8-1.7-1.7-1.7   s-1.7,0.8-1.7,1.7v4c0,0.5,0,1,0.1,1.5c0.1,0.5,0.2,1,0.3,1.5c0.1,0.5,0.3,1,0.5,1.4c0.2,0.5,0.4,0.9,0.7,1.3   c0.2,0.4,0.5,0.8,0.8,1.2c0.3,0.4,0.6,0.8,1,1.1c0.4,0.4,0.7,0.7,1.1,1c0.4,0.3,0.8,0.6,1.3,0.8l3.4,2c0.3,0.2,0.6,0.2,0.9,0.2   c0.6,0,1.2-0.3,1.5-0.9C70,130.9,69.7,129.8,68.9,129.4z" style="fill: #0aff82; fill-opacity: 1;"></path><path d="M69.9,100.5c1,0,1.7-0.8,1.7-1.7V93c0-0.2,0-0.5,0-0.7c0-0.2,0.1-0.5,0.1-0.7s0.1-0.4,0.2-0.7c0.1-0.2,0.2-0.4,0.3-0.6   c0.1-0.2,0.2-0.4,0.4-0.6c0.1-0.2,0.3-0.4,0.5-0.5c0.2-0.2,0.3-0.3,0.5-0.5c0.2-0.1,0.4-0.3,0.6-0.4l5-2.9c0.8-0.5,1.1-1.5,0.6-2.4   c-0.5-0.8-1.5-1.1-2.4-0.6l-5,2.9c-0.3,0.2-0.7,0.4-1,0.7c-0.3,0.2-0.6,0.5-0.9,0.8c-0.3,0.3-0.5,0.6-0.8,0.9   c-0.2,0.3-0.4,0.6-0.6,1c-0.2,0.3-0.4,0.7-0.5,1c-0.1,0.4-0.3,0.7-0.4,1.1c-0.1,0.4-0.2,0.8-0.2,1.1c-0.1,0.4-0.1,0.8-0.1,1.2v5.8   C68.2,99.7,68.9,100.5,69.9,100.5z" style="fill: #0aff82; fill-opacity: 1;"></path><path d="M97,113.6c-0.1,0-0.3,0-0.4,0c-0.2,0-0.3,0-0.4-0.1c-0.1,0-0.3-0.1-0.4-0.1c-0.1-0.1-0.3-0.1-0.4-0.2l-4.9-2.8   c-0.1-0.1-0.3-0.2-0.4-0.3c-0.1-0.1-0.2-0.2-0.3-0.3c-0.1-0.1-0.2-0.2-0.3-0.3c-0.1-0.1-0.2-0.2-0.3-0.4c-0.1-0.1-0.1-0.3-0.2-0.4   c-0.1-0.1-0.1-0.3-0.1-0.4c0-0.1-0.1-0.3-0.1-0.4c0-0.2,0-0.3,0-0.5v-0.7c0,0,0,0,0,0l0-4.9c0-0.2,0-0.3,0-0.5   c0-0.2,0.1-0.3,0.1-0.4c0-0.2,0.1-0.3,0.1-0.4c0.1-0.1,0.1-0.3,0.2-0.4c0.1-0.1,0.2-0.3,0.3-0.4c0.1-0.1,0.2-0.2,0.3-0.3   c0.1-0.1,0.2-0.2,0.3-0.3c0.1-0.1,0.3-0.2,0.4-0.3l4.9-2.8c0.1-0.1,0.3-0.1,0.4-0.2c0.1-0.1,0.3-0.1,0.4-0.1c0.2,0,0.3-0.1,0.4-0.1   c0.3,0,0.6,0,0.9,0c0.2,0,0.3,0,0.4,0.1c0.1,0,0.3,0.1,0.4,0.1c0.1,0.1,0.3,0.1,0.4,0.2l4.9,2.8c0.1,0.1,0.3,0.2,0.4,0.3   c0.1,0.1,0.2,0.2,0.3,0.3c0.1,0.1,0.2,0.2,0.3,0.3c0.1,0.1,0.2,0.3,0.3,0.4c0.1,0.1,0.1,0.3,0.2,0.4c0.1,0.1,0.1,0.3,0.1,0.4   c0,0.1,0.1,0.3,0.1,0.4c0,0.1,0,0.3,0,0.5l0,5.6c0,0.2,0,0.3,0,0.5c0,0.1,0,0.3-0.1,0.4c0,0.1-0.1,0.3-0.1,0.4   c-0.1,0.1-0.1,0.3-0.2,0.4c-0.1,0.1-0.2,0.3-0.3,0.4c-0.1,0.1-0.2,0.2-0.3,0.3c-0.1,0.1-0.2,0.2-0.3,0.3c-0.1,0.1-0.3,0.2-0.4,0.3   l-4.9,2.8c-0.1,0.1-0.3,0.1-0.4,0.2c-0.1,0.1-0.3,0.1-0.4,0.1c-0.2,0-0.3,0.1-0.4,0.1C97.3,113.6,97.1,113.6,97,113.6z M92.1,106.7   v0.7l4.9,2.8l4.9-2.8l0-0.7l0-4.9L97,99.1l-4.9,2.8l0,1.4L92.1,106.7z" style="fill: #ffffff; fill-opacity: 1;"></path></svg> <svg y="407.6416244506836" viewBox="0.46000000834465027 12.930000305175781 340.46002197265625 42" x="117.27385766601563" height="42" width="340.46002197265625" style="overflow: visible;"><g fill="#0aff82" fill-opacity="1" style=""><path d="M37.99 54.06L31.84 54.06Q30.86 51.45 29.99 48.92Q29.12 46.40 28.19 43.79L28.19 43.79L9.98 43.79L6.32 54.06L0.46 54.06Q2.78 47.68 4.81 42.25Q6.84 36.83 8.79 31.96Q10.73 27.09 12.64 22.65Q14.56 18.21 16.65 13.86L16.65 13.86L21.81 13.86Q23.90 18.21 25.81 22.65Q27.72 27.09 29.67 31.96Q31.61 36.83 33.64 42.25Q35.67 47.68 37.99 54.06L37.99 54.06ZM11.60 39.15L26.56 39.15Q24.71 34.10 22.88 29.38Q21.05 24.65 19.08 20.30L19.08 20.30Q17.05 24.65 15.23 29.38Q13.40 34.10 11.60 39.15L11.60 39.15ZM71.22 54.93L71.22 54.93Q66.99 54.93 63.51 53.53Q60.03 52.14 57.54 49.47Q55.04 46.81 53.68 42.89Q52.32 38.98 52.32 33.93L52.32 33.93Q52.32 28.88 53.85 24.97Q55.39 21.05 58.00 18.39Q60.61 15.72 64.09 14.33Q67.57 12.93 71.51 12.93L71.51 12.93Q74.01 12.93 76.01 13.28Q78.01 13.63 79.49 14.09Q80.97 14.56 81.90 15.02Q82.82 15.49 83.17 15.72L83.17 15.72L81.55 20.36Q81.03 20.01 80.04 19.60Q79.05 19.20 77.81 18.79Q76.56 18.39 75.08 18.13Q73.60 17.86 72.09 17.86L72.09 17.86Q68.90 17.86 66.35 18.97Q63.80 20.07 62.00 22.16Q60.20 24.24 59.25 27.23Q58.29 30.22 58.29 33.93L58.29 33.93Q58.29 37.53 59.13 40.48Q59.97 43.44 61.65 45.56Q63.34 47.68 65.86 48.84Q68.38 50.00 71.75 50.00L71.75 50.00Q75.63 50.00 78.18 49.18Q80.74 48.37 82.01 47.73L82.01 47.73L83.46 52.37Q83.06 52.66 82.01 53.10Q80.97 53.53 79.40 53.94Q77.84 54.35 75.75 54.64Q73.66 54.93 71.22 54.93ZM121.16 37.24L121.16 37.24Q122.09 38.40 123.51 40.28Q124.93 42.17 126.44 44.46Q127.95 46.75 129.43 49.24Q130.91 51.74 131.95 54.06L131.95 54.06L125.80 54.06Q124.64 51.85 123.28 49.59Q121.92 47.33 120.52 45.27Q119.13 43.21 117.77 41.41Q116.41 39.61 115.30 38.28L115.30 38.28Q114.55 38.34 113.77 38.34Q112.98 38.34 112.17 38.34L112.17 38.34L107.13 38.34L107.13 54.06L101.50 54.06L101.50 14.44Q103.88 13.86 106.81 13.66Q109.74 13.46 112.17 13.46L112.17 13.46Q120.64 13.46 125.08 16.65Q129.51 19.84 129.51 26.16L129.51 26.16Q129.51 30.16 127.40 33.00Q125.28 35.84 121.16 37.24ZM112.64 18.39L112.64 18.39Q109.04 18.39 107.13 18.56L107.13 18.56L107.13 33.70L111.13 33.70Q114.03 33.70 116.35 33.41Q118.67 33.12 120.26 32.31Q121.86 31.49 122.73 30.02Q123.60 28.54 123.60 26.10L123.60 26.10Q123.60 23.84 122.73 22.33Q121.86 20.82 120.38 19.95Q118.90 19.08 116.90 18.73Q114.90 18.39 112.64 18.39ZM180.21 49.18L198.77 49.18L198.77 54.06L174.58 54.06L174.58 13.86L180.21 13.86L180.21 49.18ZM250.91 54.06L244.76 54.06Q243.77 51.45 242.90 48.92Q242.03 46.40 241.11 43.79L241.11 43.79L222.89 43.79L219.24 54.06L213.38 54.06Q215.70 47.68 217.73 42.25Q219.76 36.83 221.70 31.96Q223.65 27.09 225.56 22.65Q227.48 18.21 229.56 13.86L229.56 13.86L234.73 13.86Q236.81 18.21 238.73 22.65Q240.64 27.09 242.58 31.96Q244.53 36.83 246.56 42.25Q248.59 47.68 250.91 54.06L250.91 54.06ZM224.52 39.15L239.48 39.15Q237.63 34.10 235.80 29.38Q233.97 24.65 232.00 20.30L232.00 20.30Q229.97 24.65 228.14 29.38Q226.32 34.10 224.52 39.15L224.52 39.15ZM278.81 54.40L278.81 54.40Q277.59 54.40 276.17 54.35Q274.75 54.29 273.32 54.17Q271.90 54.06 270.51 53.88Q269.12 53.71 267.96 53.42L267.96 53.42L267.96 14.44Q269.12 14.15 270.51 13.98Q271.90 13.80 273.32 13.69Q274.75 13.57 276.14 13.51Q277.53 13.46 278.75 13.46L278.75 13.46Q282.23 13.46 285.27 13.98Q288.32 14.50 290.55 15.75Q292.78 16.99 294.06 19.02Q295.34 21.05 295.34 24.01L295.34 24.01Q295.34 27.32 293.77 29.44Q292.20 31.55 289.59 32.60L289.59 32.60Q293.13 33.64 295.22 35.90Q297.31 38.16 297.31 42.28L297.31 42.28Q297.31 48.31 292.87 51.36Q288.43 54.40 278.81 54.40ZM280.78 35.32L273.53 35.32L273.53 49.47Q274.17 49.53 275.04 49.59L275.04 49.59Q275.79 49.65 276.81 49.68Q277.82 49.71 279.15 49.71L279.15 49.71Q281.65 49.71 283.88 49.39Q286.11 49.07 287.80 48.26Q289.48 47.44 290.49 45.99Q291.51 44.54 291.51 42.34L291.51 42.34Q291.51 40.37 290.75 39.01Q290 37.64 288.58 36.83Q287.16 36.02 285.19 35.67Q283.21 35.32 280.78 35.32L280.78 35.32ZM273.53 18.39L273.53 30.80L279.44 30.80Q281.53 30.80 283.39 30.51Q285.24 30.22 286.61 29.46Q287.97 28.71 288.75 27.49Q289.54 26.27 289.54 24.42L289.54 24.42Q289.54 22.68 288.72 21.49Q287.91 20.30 286.49 19.58Q285.07 18.85 283.16 18.50Q281.24 18.15 279.10 18.15L279.10 18.15Q276.95 18.15 275.73 18.21Q274.51 18.27 273.53 18.39L273.53 18.39ZM326.19 50.05L326.19 50.05Q335.01 50.05 335.01 44.02L335.01 44.02Q335.01 42.17 334.22 40.86Q333.44 39.56 332.11 38.60Q330.77 37.64 329.06 36.95Q327.35 36.25 325.44 35.55L325.44 35.55Q323.23 34.80 321.26 33.84Q319.29 32.89 317.84 31.58Q316.39 30.28 315.55 28.48Q314.71 26.68 314.71 24.13L314.71 24.13Q314.71 18.85 318.30 15.89Q321.90 12.93 328.22 12.93L328.22 12.93Q331.88 12.93 334.86 13.72Q337.85 14.50 339.24 15.43L339.24 15.43L337.44 20.01Q336.23 19.26 333.82 18.53Q331.41 17.81 328.22 17.81L328.22 17.81Q326.60 17.81 325.21 18.15Q323.81 18.50 322.77 19.20Q321.73 19.89 321.12 20.97Q320.51 22.04 320.51 23.49L320.51 23.49Q320.51 25.11 321.15 26.22Q321.78 27.32 322.94 28.16Q324.10 29.00 325.64 29.70Q327.18 30.39 329.03 31.09L329.03 31.09Q331.64 32.13 333.82 33.18Q335.99 34.22 337.59 35.67Q339.18 37.12 340.05 39.12Q340.92 41.12 340.92 43.96L340.92 43.96Q340.92 49.24 337.07 52.08Q333.21 54.93 326.19 54.93L326.19 54.93Q323.81 54.93 321.81 54.61Q319.81 54.29 318.25 53.85Q316.68 53.42 315.55 52.93Q314.42 52.43 313.78 52.08L313.78 52.08L315.46 47.44Q316.80 48.20 319.52 49.13Q322.25 50.05 326.19 50.05Z" transform="translate(0, 0)"></path></g></svg></svg>